<svg viewBox="0 0 60 60" xmlns="http://www.w3.org/2000/svg"><g data-name="Layer 2"><path d="M0 0h60v60H0z" fill="none"></path><path d="M56.67 49.88 46.89 36a19.31 19.31 0 1 0-33.9.18l-9.66 13.7a1.63 1.63 0 0 0 1.34 2.58h50.66a1.63 1.63 0 0 0 1.34-2.58Zm-40-15.57 3.6 5.11-1.6 2.27-1.3-1.3a1 1 0 0 0-.69-.29 1 1 0 0 0-.69.29L13.36 43l-1.66-1.63Zm18.58-15-.82 1.1a1 1 0 0 0 0 1.17l.82 1.1h-4.38V19.3Zm-5.37 9.86 5.69 8.08-1.95 1.95-2.94-2.94a1 1 0 0 0-1.38 0L26.53 39l-2.11-2.11Zm-6.61 9.38 2.56 2.56a1 1 0 0 0 1.38 0L30 38.32l2.94 2.94a1 1 0 0 0 1.38 0l2.4-2.41 8.22 11.66H14.85Zm16.33 1 3.71-5.26 5 7.06L46.64 43 44 40.39a1 1 0 0 0-.69-.29 1 1 0 0 0-.69.29l-1.42 1.43Zm-27.07-12.7a17.36 17.36 0 1 1 33.09 7.34l-1-1.37a1.7 1.7 0 0 0-2.68 0l-3.56 5.05-7.15-10.2a1.45 1.45 0 0 0-.36-.34v-2.71h6.34a1 1 0 0 0 .79-1.56L36.43 21 38 18.91a1 1 0 0 0-.78-1.56h-7.33a1 1 0 0 0-1 1v9a1.33 1.33 0 0 0-.37.34l-7.08 10L18 32.82a1.7 1.7 0 0 0-2.68 0l-1.09 1.54a17.37 17.37 0 0 1-1.7-7.51ZM10.57 43l2.1 2.1a1 1 0 0 0 1.38 0l2.64-2.63.85.85-4.63 6.57a1.65 1.65 0 0 0-.26.63H5.26Zm36.56 7.52a1.63 1.63 0 0 0-.25-.63l-4.54-6.44 1-1L46 45.09a1 1 0 0 0 1.38 0l2.1-2.1 5.31 7.52Z" fill="#000000" class="fill-3d3d63"></path></g></svg>